<svg xmlns="http://www.w3.org/2000/svg" width="33" height="34" fill="none" viewBox="0 0 33 34"><path fill="#47b2ff" d="M15.143 31.068c-2.088-.97-4.45-2.751-6.891-4.4-1.386-.935-2.699-1.963-3.704-3.324-1.038-1.405-1.12-2.672-.313-3.948.765-1.207 2.087-1.746 3.69-1.423 1.618.327 3.19.36 4.832-.055 2.749-.696 5.231 1.23 5.319 4.069.05 1.586.911 2.715 1.76 3.885.674.931 1.081 1.924.779 3.106-.631 2.456-2.201 3.204-5.472 2.09M20.785 8.986c-.507 1.296-1.108 2.529-2.208 3.437-1.567 1.292-3.206 1.006-4.209-.734-1.703-2.954-.718-6.469 2.228-7.952 2.284-1.15 4.099-.215 4.486 2.306.156 1.007-.008 1.98-.297 2.943M20.345 12.117c.86-1.779 2.075-3.614 4.322-4.415 2.228-.795 3.842.365 3.922 2.754.116 3.479-2.852 6.258-6.261 5.864-1.978-.229-2.82-1.816-1.983-4.203M12.321 13.326c-.657 1.891-1.908 3.135-3.918 3.413-2.19.303-3.885-1.636-3.229-3.76.648-2.098 1.996-3.715 3.942-4.733 1.36-.71 2.32-.342 2.99 1.05.626 1.298.704 2.65.215 4.03M27.302 22.628c-.463 1.246-1.334 2.714-2.914 3.604-1.5.844-2.673.365-3.174-1.3-.566-1.881-.38-3.735.595-5.436.854-1.488 3.408-2.21 4.873-1.502 1.177.57 1.467 2.176.62 4.634"/></svg>