<svg xmlns="http://www.w3.org/2000/svg" width="64" height="67" fill="none" viewBox="0 0 64 67"><path fill="#fff" d="M29.8 61.276c-4.245-1.953-9.056-5.516-14.027-8.818-2.822-1.873-5.496-3.927-7.554-6.636-2.126-2.796-2.315-5.302-.701-7.812 1.527-2.374 4.194-3.416 7.443-2.75 3.282.673 6.463.768 9.781-.025 5.554-1.33 10.612 2.52 10.838 8.135.127 3.138 1.891 5.385 3.627 7.712 1.382 1.853 2.224 3.822 1.631 6.154-1.234 4.846-4.4 6.299-11.039 4.04M40.84 17.71c-1.002 2.554-2.198 4.982-4.41 6.758-3.15 2.529-6.471 1.935-8.532-1.523-3.498-5.87-1.565-12.802 4.372-15.684 4.605-2.234 8.294-.356 9.122 4.635.332 1.994.018 3.916-.551 5.815M40.003 23.895c1.711-3.503 4.138-7.111 8.673-8.657 4.498-1.532 7.785.789 7.987 5.514.295 6.88-5.666 12.325-12.573 11.486-4.008-.486-5.74-3.64-4.087-8.343M23.781 26.146c-1.298 3.73-3.809 6.168-7.872 6.683-4.43.562-7.892-3.302-6.601-7.49 1.275-4.138 3.976-7.312 7.9-9.291 2.737-1.382 4.688-.636 6.07 2.128 1.287 2.577 1.47 5.251.503 7.97M54.267 44.797c-.916 2.456-2.653 5.343-5.837 7.075-3.023 1.644-5.405.677-6.446-2.625-1.178-3.728-.836-7.392 1.11-10.737 1.703-2.928 6.86-4.313 9.838-2.887 2.394 1.146 3.008 4.327 1.334 9.174"/></svg>