<svg xmlns="http://www.w3.org/2000/svg" width="279" height="44" fill="none" viewBox="0 0 279 44"><path fill="#323232" d="M274.924 2.675c2.097 0 3.443 1.36 3.443 3.44v34.127h-6.924V23.84h-1.979v16.403h-6.924V6.116c0-2.08 1.385-3.44 3.482-3.44s3.442 1.36 3.442 3.44v11.082h1.979V6.116c0-2.08 1.384-3.44 3.481-3.44M251.66 31.961h6.37c2.295 0 2.967 1.84 2.967 3.36 0 1.56-.712 3.32-2.967 3.32h-9.259c-5.143 0-6.093-1.24-6.093-6.24V10.276c0-5 .95-6.2 6.093-6.2h8.349c2.294 0 3.046 1.84 3.046 3.36 0 1.56-.791 3.4-3.046 3.4h-5.46c-.713 0-1.029.24-1.029 1.16V30.8c0 .92.316 1.16 1.029 1.16M208.553 20.01c5.283-.782 10.37-4.265 10.801-8.922h-9.47c-2.348 0-3.288-1.643-3.288-3.248 0-1.565.9-3.287 3.288-3.287h27.079c2.387 0 3.287 1.722 3.287 3.287 0 1.605-.939 3.248-3.287 3.248h-9.509a13.3 13.3 0 0 1-.509 2.818c7.122-.313 13.423 4.03 13.971 12.522h-7.749c-.978-4.735-5.048-7.279-9.665-6.535-3.718 4.03-9.314 6.574-13.814 6.574-2.348 0-3.835-1.33-3.835-3.404a3.05 3.05 0 0 1 2.7-3.053m18.862 12.875h11.035c2.348 0 3.287 1.604 3.287 3.209 0 1.682-.978 3.209-3.287 3.209h-30.053c-2.309 0-3.288-1.527-3.288-3.21 0-1.604.94-3.208 3.288-3.208h11.035V27.68c0-2.543 1.917-3.326 3.991-3.326 2.035 0 3.992.822 3.992 3.326zM200.688 23.194h.196c2.348 0 3.287 1.592 3.287 3.184 0 1.63-.978 3.184-3.287 3.184h-11.036v10.68h-7.983v-10.68H170.83c-2.309 0-3.287-1.553-3.287-3.184 0-1.592.939-3.184 3.287-3.184h21.797c1.252-2.136 1.878-4.894 1.878-8.855v-2.136c0-.543-.352-.97-.978-.97h-21.249c-2.348 0-3.444-1.748-3.444-3.34 0-1.554 1.057-3.34 3.444-3.34h23.91c4.617 0 6.026 1.748 6.026 5.553v3.69c0 3.728-.587 6.912-1.526 9.398M108.668 9.876h1.241c2.441 0 3.162 1.88 3.162 3.481 0 1.64-.761 3.48-3.162 3.48h-1.241v7.402h-8.006V6.636c0-2.6 1.881-3.96 4.003-3.96s4.003 1.36 4.003 3.96zM95.178 23.24h-16.05c-3.483 0-4.564-1.32-4.564-4.48V8.315c0-3.16 1.081-4.44 4.564-4.44h14.33c2.32 0 3.001 1.64 3.001 3.08 0 1.52-.72 3.16-3.002 3.16H83.05c-.56 0-.8.24-.8.76v5.442c0 .52.24.76.8.76H95.18c2.321 0 2.921 1.64 2.921 3.12s-.64 3.04-2.921 3.04m-15.97 2.64h23.976c5.003 0 5.924 1.36 5.924 6.162v8.201h-8.086v-7.081c0-.6-.32-.96-.96-.96H79.208c-2.242 0-3.483-1.28-3.483-3.161 0-1.88 1.241-3.16 3.483-3.16"/><path fill="#323232" d="M71.022 16.678h1.403c2.377 0 3.079 1.88 3.079 3.48 0 1.64-.74 3.481-3.079 3.481h-1.403v16.603h-7.794V6.636c0-2.6 1.832-3.96 3.897-3.96 2.066 0 3.897 1.36 3.897 3.96zM55.902 3.995c2.26 0 3.663 1.24 3.663 3.921v30.606H43.587c-4.52 0-5.65-1.6-5.65-6.001V7.916c0-2.72 1.52-3.92 3.78-3.92 2.221 0 3.663 1.24 3.663 3.92v6.161h6.82v-6.16c0-2.721 1.48-3.922 3.702-3.922m-9.43 27.926h5.689V20.598H45.38V30.88c0 .92.195 1.04 1.091 1.04M33.65 9.076h1.209c2.377 0 3.078 1.88 3.078 3.48 0 1.641-.74 3.482-3.078 3.482H33.65v6.2h-7.793V6.637c0-2.6 1.831-3.96 3.896-3.96s3.898 1.36 3.898 3.96zM22 7.116v14.603H5.397c-3.74 0-5.027-1.6-5.027-4.961V7.116c0-2.32 1.403-3.52 3.663-3.52 2.144 0 3.39 1.16 3.469 3.32h7.443c.078-2.2 1.364-3.32 3.507-3.32 2.26 0 3.546 1.24 3.546 3.52M8.593 16.238h6.313v-4.041H7.502v3c0 .92.194 1.04 1.09 1.04m2.104 19.283h21.98c1.558 0 2.22 1.24 2.22 2.44 0 1.12-.623 2.281-2.22 2.281H7.072c-3.546 0-5.456-2.32-5.456-5.12V34.2c0-2.68 1.91-4.52 5.456-4.52h18.9v-.921c0-.48-.116-.68-.623-.68H4.19c-1.52 0-2.144-1.12-2.144-2.32 0-1.12.662-2.321 2.143-2.321h25.097c3.39 0 4.598 1.04 4.598 4.12v6.362H10.697c-.545 0-.818.32-.818.68v.2c0 .36.273.72.818.72"/><path fill="#47b2ff" d="M152.709 16.654c-2.756 3.088-6.426 3.438-7.321 2.965-5.748-3.035-3.068-11.918-1.805-14.307s5.516-6.339 9.818-3.448c4.303 2.89 2.754 10.93-.692 14.79M126.622 33.222c2.406-2.261 4.528-5.561 5.287-6.929 4.741-9.663 11.304-5.925 13.31-2.005s5.47 7.657 7.293 8.933c1.823 1.277 4.832 4.741 3.738 7.567s-4.011 3.738-9.846 1.55c-5.834-2.188-9.116-.912-11.851 0-2.735.911-9.116 3.19-11.395 0s.455-6.29 3.464-9.117"/><path fill="#47b2ff" d="M119.294 29.927c3.05 2.238 6.371 1.832 7.072 1.23 4.497-3.863.377-11.333-1.212-13.235-1.59-1.903-6.134-4.623-9.38-1.175s-.292 10.383 3.52 13.18M160.141 30.045c-3.161 1.959-6.414 1.327-7.066.693-4.185-4.075.383-11.043 2.079-12.779s6.366-4.056 9.342-.474c2.976 3.583-.403 10.113-4.355 12.56M137.788 13.663c-.972 3.807-3.906 5.674-4.865 5.654-6.158-.127-7.778-8.835-7.758-11.41s1.874-7.754 6.753-7.133c4.88.621 7.084 8.13 5.87 12.889"/></svg>