<svg xmlns="http://www.w3.org/2000/svg" width="69" height="88" fill="none" viewBox="0 0 69 88"><path fill="#f8f7f2" stroke="#000" stroke-width="3" d="M37.94 4.757c-2.042-1.963-5.317-1.793-7.198.324C14.18 23.719-7.786 46.427 7.523 69.39c18.258 27.386 46.939 14.343 55.03 0C72.877 51.094 67.423 33.115 37.94 4.757Z"/><path fill="#dbe4e7" stroke="#000" stroke-width="3" d="M37.06 3.775c-1.848-2.146-5.191-1.982-7.066.14C13.496 22.604-7.975 45.673 7.941 68.22c7.025 9.952 77.277 1.464 50.64-10.245-65.408-28.75 1.328-27.673-21.52-54.2Z"/><path fill="#664c3b" stroke="#000" stroke-width="3" d="M52.982 31.922c0 .297-.176.71-.672 1.106a2.9 2.9 0 0 1-1.169.56l.015-.097.014-.097c.058-.392.129-.91.129-1.472 0-.648-.156-1.341-.296-1.895-.063-.25-.123-.473-.179-.68q-.064-.236-.12-.455a6.8 6.8 0 0 1 1.004.896c.403.435.744.901.976 1.325.248.455.298.728.298.81Zm-2.452 1.711.012.002zm.541.605Z"/><path fill="#5b5851" stroke="#000" stroke-width="3" d="M67.34 51.793c.074-5.117-7.625-4.386-11.92-1.603C37.882 61.552-4.69 48.123 6.557 67.634c17.745 30.783 47.916 15.514 56.008 1.17 3.47-6.151 4.7-11.962 4.773-17.01Z"/></svg>