<svg xmlns="http://www.w3.org/2000/svg" width="69" height="87" fill="none" viewBox="0 0 69 87"><path fill="#fefcef" d="M37.555 3.757c-2.041-1.963-5.317-1.793-7.198.324C13.797 22.719-8.17 45.427 7.14 68.39c18.258 27.386 46.939 14.343 55.03 0 10.322-18.296 4.868-36.275-24.614-64.633"/><path stroke="#000" stroke-width="3" d="M37.555 3.757c-2.041-1.963-5.317-1.793-7.198.324C13.797 22.719-8.17 45.427 7.14 68.39c18.258 27.386 46.939 14.343 55.03 0 10.322-18.296 4.868-36.275-24.614-64.633Z"/><path stroke="#000" stroke-opacity=".2" stroke-width="3" d="M37.555 3.757c-2.041-1.963-5.317-1.793-7.198.324C13.797 22.719-8.17 45.427 7.14 68.39c18.258 27.386 46.939 14.343 55.03 0 10.322-18.296 4.868-36.275-24.614-64.633Z"/><path fill="#905c5c" d="M36.648 3.946c-1.848-2.146-5.191-1.983-7.066.14C13.084 22.774-8.388 45.843 7.53 68.39c7.025 9.952 77.277 1.463 50.64-10.245-65.409-28.75 1.328-27.673-21.521-54.2"/><path stroke="#000" stroke-width="3" d="M36.648 3.946c-1.848-2.146-5.191-1.983-7.066.14C13.084 22.774-8.388 45.843 7.53 68.39c7.025 9.952 77.277 1.463 50.64-10.245-65.409-28.75 1.328-27.673-21.521-54.2Z"/><path stroke="#000" stroke-opacity=".2" stroke-width="3" d="M36.648 3.946c-1.848-2.146-5.191-1.983-7.066.14C13.084 22.774-8.388 45.843 7.53 68.39c7.025 9.952 77.277 1.463 50.64-10.245-65.409-28.75 1.328-27.673-21.521-54.2Z"/><path fill="#f2ce6a" d="M67.139 51.379c.075-5.118-7.625-4.387-11.92-1.604C37.682 61.138-4.89 47.708 6.358 67.22c17.745 30.784 47.916 15.514 56.007 1.171 3.471-6.152 4.7-11.963 4.774-17.011"/><path stroke="#000" stroke-width="3" d="M67.139 51.379c.075-5.118-7.625-4.387-11.92-1.604C37.682 61.138-4.89 47.708 6.358 67.22c17.745 30.784 47.916 15.514 56.007 1.171 3.471-6.152 4.7-11.963 4.774-17.011Z"/><path stroke="#000" stroke-opacity=".2" stroke-width="3" d="M67.139 51.379c.075-5.118-7.625-4.387-11.92-1.604C37.682 61.138-4.89 47.708 6.358 67.22c17.745 30.784 47.916 15.514 56.007 1.171 3.471-6.152 4.7-11.963 4.774-17.011Z"/><path fill="#905c5c" d="M52.57 32.093c0 .296-.177.71-.672 1.105a2.9 2.9 0 0 1-1.169.562l.015-.099.014-.096c.057-.393.129-.91.129-1.472 0-.648-.156-1.342-.296-1.895-.063-.251-.123-.473-.179-.68q-.065-.236-.12-.455c.327.234.674.54 1.004.896.403.434.744.901.976 1.325.248.454.298.727.298.81m-2.452 1.71.012.003zm.541.605"/><path stroke="#000" stroke-width="3" d="M52.57 32.093c0 .296-.177.71-.672 1.105a2.9 2.9 0 0 1-1.169.562l.015-.099.014-.096c.057-.393.129-.91.129-1.472 0-.648-.156-1.342-.296-1.895-.063-.251-.123-.473-.179-.68q-.065-.236-.12-.455c.327.234.674.54 1.004.896.403.434.744.901.976 1.325.248.454.298.727.298.81Zm-2.452 1.71.012.003zm.541.605Z"/><path stroke="#000" stroke-opacity=".2" stroke-width="3" d="M52.57 32.093c0 .296-.177.71-.672 1.105a2.9 2.9 0 0 1-1.169.562l.015-.099.014-.096c.057-.393.129-.91.129-1.472 0-.648-.156-1.342-.296-1.895-.063-.251-.123-.473-.179-.68q-.065-.236-.12-.455c.327.234.674.54 1.004.896.403.434.744.901.976 1.325.248.454.298.727.298.81Zm-2.452 1.71.012.003zm.541.605Z"/></svg>